<svg width="11" height="13" viewBox="0 0 11 13" fill="none" xmlns="http://www.w3.org/2000/svg">
<path fill-rule="evenodd" clip-rule="evenodd" d="M5.69015 1.11765L10.1656 5.69475C10.3781 5.91304 10.5 6.21725 10.5 6.53017V11.3929C10.5 12.0333 10.0083 12.554 9.40396 12.554H7.59727V7.32901C7.59727 7.00854 7.33776 6.74846 7.01672 6.74846H3.53338C3.21233 6.74846 2.95283 7.00854 2.95283 7.32901V12.554H1.14672C0.54236 12.554 0.0500488 12.0333 0.0500488 11.3929V6.53017C0.0500488 6.21725 0.171965 5.91304 0.383868 5.69533L4.85995 1.11765C5.07882 0.894134 5.47128 0.894134 5.69015 1.11765ZM6.43624 11.9737H4.11402V7.90979H6.43624V11.9737Z" fill="white"/>
</svg>
