<svg width="22" height="22" viewBox="0 0 22 22" fill="none" xmlns="http://www.w3.org/2000/svg">
<circle cx="11" cy="11" r="11" fill="#D10400"/>
<path fill-rule="evenodd" clip-rule="evenodd" d="M11.6901 5.11765L16.1656 9.69475C16.3781 9.91304 16.5 10.2172 16.5 10.5302V15.3929C16.5 16.0333 16.0083 16.554 15.404 16.554H13.5973V11.329C13.5973 11.0085 13.3378 10.7485 13.0167 10.7485H9.53338C9.21233 10.7485 8.95283 11.0085 8.95283 11.329V16.554H7.14672C6.54236 16.554 6.05005 16.0333 6.05005 15.3929V10.5302C6.05005 10.2172 6.17197 9.91304 6.38387 9.69533L10.86 5.11765C11.0788 4.89413 11.4713 4.89413 11.6901 5.11765ZM12.4362 15.9737H10.114V11.9098H12.4362V15.9737Z" fill="white"/>
</svg>
