<svg width="14" height="14" viewBox="0 0 14 14" fill="none" xmlns="http://www.w3.org/2000/svg">
<path d="M13.0533 5.04524L13.0532 5.04523L10.1886 3.74316L10.1886 3.74315C10.0755 3.69177 9.94554 3.69177 9.83244 3.74315L9.83242 3.74316L8.8893 4.17186L8.80421 4.21054L8.83707 4.29804C8.86461 4.37142 8.86451 4.45047 8.82346 4.52548L8.82345 4.52549C8.75007 4.65963 8.65532 4.77949 8.54499 4.88576L8.53518 4.89521L8.52826 4.90694C8.51556 4.92844 8.50194 4.94998 8.48757 4.97246L8.48709 4.97215L8.48229 4.98181C8.45544 5.03583 8.42906 5.09027 8.4035 5.1452L8.28946 5.39028L8.53554 5.27843L10.0106 4.60797L12.4447 5.71431V12.4509L10.1888 11.4255L10.1887 11.4255C10.0756 11.3741 9.94565 11.3741 9.83255 11.4255L9.83253 11.4255L7.14603 12.6466L4.45943 11.4256L4.45941 11.4256C4.40291 11.3999 4.34208 11.387 4.28132 11.387C4.22056 11.387 4.15973 11.3999 4.10323 11.4256L4.10321 11.4256L1.84724 12.451V5.71442L4.28132 4.60808L5.64085 5.22598L5.76189 5.0745C5.74781 5.05595 5.73359 5.0371 5.71917 5.01798C5.64673 4.92195 5.56923 4.8192 5.48029 4.71513C5.37472 4.5915 5.39156 4.44476 5.47165 4.3356L5.54447 4.23635L5.4324 4.18541L4.45943 3.74316L4.45941 3.74315C4.34631 3.69177 4.21633 3.69177 4.10323 3.74315L4.10321 3.74316L1.2386 5.04523L1.23859 5.04524C1.08493 5.11511 0.986182 5.26835 0.986182 5.43716V13.1195C0.986182 13.2659 1.06053 13.4022 1.18361 13.4815L1.18368 13.4816C1.30673 13.5607 1.46174 13.5721 1.59496 13.5114L4.28132 12.2903L6.96782 13.5114L6.96783 13.5114C7.08094 13.5628 7.21092 13.5628 7.32402 13.5114L7.32404 13.5114L10.0105 12.2903L12.697 13.5114C12.7538 13.5372 12.8146 13.55 12.8751 13.55C12.9565 13.55 13.0376 13.5269 13.1081 13.4816L13.1082 13.4816C13.2314 13.4023 13.3057 13.2658 13.3057 13.1195V5.43716C13.3057 5.26835 13.2069 5.11511 13.0533 5.04524Z" fill="#D10400" stroke="#D10400" stroke-width="0.2"/>
<path d="M1.71647 10.4355C1.74997 10.3186 1.68243 10.1965 1.56542 10.1629L1.71647 10.4355ZM1.71647 10.4355C1.65026 10.6663 1.63637 10.8223 1.63626 10.8238C1.62646 10.9389 1.53016 11.0259 1.4169 11.0259C1.41084 11.0259 1.40478 11.0256 1.39861 11.0251M1.71647 10.4355L1.39861 11.0251M1.39861 11.0251C1.27753 11.0151 1.1874 10.9093 1.19699 10.7882L1.39861 11.0251ZM1.39036 11.1248L1.39036 11.1248L1.39149 11.1249C1.39859 11.1254 1.40736 11.1259 1.4169 11.1259C1.58185 11.1259 1.72166 10.9993 1.7359 10.8323L1.73591 10.8323L1.73601 10.831C1.73599 10.8312 1.73601 10.831 1.73608 10.8303C1.73728 10.8187 1.75208 10.674 1.8126 10.463L1.81261 10.463C1.86129 10.2931 1.76313 10.1156 1.59302 10.0668L1.59293 10.0667C1.42335 10.0182 1.24561 10.1161 1.19673 10.2863L1.19673 10.2863C1.11497 10.5711 1.09836 10.7676 1.09733 10.7799L1.09733 10.7799L1.0973 10.7804C1.08336 10.9565 1.21452 11.1102 1.39036 11.1248Z" fill="#D10400" stroke="#D10400" stroke-width="0.2"/>
<path d="M8.50241 10.8932L8.50236 10.8932C8.33417 10.8383 8.24243 10.6575 8.29719 10.4893L8.29722 10.4892C8.35219 10.3209 8.53354 10.2294 8.70114 10.2841L8.70118 10.2841C8.88714 10.3448 9.09853 10.3752 9.3496 10.3753L8.50241 10.8932ZM8.50241 10.8932C8.75709 10.9763 9.03476 11.0161 9.3496 11.0161L8.50241 10.8932ZM7.67551 10.3806L7.6755 10.3806C7.45976 10.1643 7.29267 9.91411 7.13114 9.66405L7.13112 9.66402C7.03519 9.51539 7.07793 9.31716 7.22647 9.2212C7.22651 9.22118 7.22654 9.22116 7.22658 9.22113L7.28081 9.30515L7.67551 10.3806ZM7.67551 10.3806C7.73807 10.4433 7.82027 10.4748 7.90232 10.4748M7.67551 10.3806L7.90232 10.4748M6.67631 9.02022L6.67626 9.02017C6.5054 8.82357 6.33122 8.68638 6.12678 8.58494C6.12678 8.58493 6.12677 8.58493 6.12677 8.58493L6.17121 8.49535L6.67631 9.02022ZM6.67631 9.02022C6.7397 9.09306 6.8289 9.13037 6.91821 9.13037C6.99254 9.13037 7.06753 9.10457 7.1281 9.0519M6.67631 9.02022L6.75174 8.95457C6.79537 9.0047 6.85663 9.03037 6.91821 9.03037C6.96945 9.03037 7.0209 9.01263 7.06255 8.97638M7.06255 8.97638L7.1281 9.0519M7.06255 8.97638L7.1282 9.05181C7.12817 9.05184 7.12813 9.05187 7.1281 9.0519M7.06255 8.97638C7.15443 8.89661 7.16424 8.75746 7.08436 8.66557M7.1281 9.0519L7.15986 8.6L7.08436 8.66557M7.08436 8.66557L7.15983 8.59997M7.08436 8.66557L7.15983 8.59997M7.15983 8.59997C6.93715 8.34361 6.69218 8.15028 6.41144 8.011L6.41143 8.011C6.25293 7.93239 6.06078 7.99692 5.98212 8.15568L7.15983 8.59997ZM2.75342 8.63214C2.81047 8.74223 2.92238 8.80524 3.038 8.80524C3.08769 8.80524 3.13812 8.79367 3.18523 8.76914C3.39994 8.65795 3.63888 8.56856 3.8958 8.50385L3.89582 8.50384C4.06732 8.46061 4.17147 8.28653 4.12821 8.11492C4.08489 7.94309 3.9108 7.83997 3.73965 7.88244L3.73928 7.88253L2.75342 8.63214ZM2.75342 8.63214C2.67205 8.47514 2.73339 8.28169 2.89052 8.20031L2.75342 8.63214ZM5.43599 8.39251C5.44865 8.39399 5.46098 8.39461 5.4728 8.39461C5.63347 8.39461 5.77209 8.27429 5.79085 8.11089M5.43599 8.39251L5.79085 8.11089C5.79085 8.11089 5.79085 8.11089 5.79085 8.11089M5.43599 8.39251C5.3165 8.37889 5.18759 8.3718 5.0527 8.3718H5.05188V8.3718C4.9194 8.37072 4.78967 8.3762 4.66319 8.3851L4.66317 8.38511C4.48536 8.39759 4.3335 8.26406 4.32118 8.08795L4.32118 8.08794C4.30885 7.91151 4.44176 7.75833 4.61834 7.74599L5.43599 8.39251ZM5.79085 8.11089C5.81103 7.93513 5.68481 7.77627 5.50911 7.75609L5.5091 7.75609M5.79085 8.11089L5.5091 7.75609M5.5091 7.75609C5.36505 7.73956 5.21175 7.73123 5.05356 7.7312M5.5091 7.75609L5.05356 7.7312M9.74245 10.6781C9.73382 10.5017 9.58356 10.3643 9.40624 10.3739L9.43823 11.0138C9.43828 11.0138 9.43833 11.0138 9.43839 11.0138C9.61512 11.0051 9.7512 10.8548 9.74245 10.6781ZM9.74245 10.6781L9.64257 10.683L9.74244 10.678C9.74244 10.6781 9.74244 10.6781 9.74245 10.6781ZM7.90232 10.4748C7.9839 10.4748 8.06596 10.4437 8.12851 10.3812M7.90232 10.4748L8.12851 10.3812M8.12851 10.3812C8.25374 10.2563 8.25409 10.0535 8.12915 9.92823L8.12851 10.3812ZM5.05356 7.7312C4.9039 7.72897 4.75797 7.73622 4.61835 7.74599L5.05356 7.7312ZM10.4432 9.5941L10.4432 9.59411C10.2835 9.85396 10.1378 10.0289 9.98537 10.1514C9.84746 10.2622 9.82552 10.4639 9.93636 10.6018C9.99974 10.6807 10.093 10.7214 10.1863 10.7214C10.2568 10.7214 10.3278 10.6981 10.3866 10.6508C10.6034 10.4766 10.7946 10.2457 10.9889 9.92969L10.9889 9.92968C11.0815 9.77909 11.0346 9.58177 10.8839 9.48903L10.8839 9.48901C10.733 9.39628 10.5358 9.44353 10.4432 9.5941ZM1.56079 9.44634L1.56075 9.44641L1.72237 9.80007L1.67096 9.88584C1.67096 9.88584 1.67097 9.88584 1.67097 9.88585C1.72237 9.91665 1.7792 9.93147 1.83541 9.93147C1.94398 9.93147 2.05035 9.87604 2.11037 9.77565C2.23965 9.55983 2.39643 9.36519 2.57615 9.19704L2.57619 9.197C2.70527 9.07609 2.71198 8.8735 2.59125 8.74428L2.59112 8.74414C2.47027 8.61528 2.26772 8.60833 2.13844 8.72912L2.13838 8.72918C1.91497 8.93826 1.72062 9.17958 1.56079 9.44634ZM10.9678 9.31266L10.9679 9.31272C11.0149 9.33707 11.0654 9.34885 11.1154 9.34885C11.2309 9.34885 11.3426 9.28597 11.3998 9.17613L11.3998 9.1761C11.5241 8.93712 11.6543 8.69295 11.7966 8.49293L11.7966 8.49292C11.8992 8.34871 11.8653 8.14883 11.7212 8.04623L11.7211 8.04615C11.577 7.94386 11.3771 7.97727 11.2744 8.12161L11.2744 8.12163C11.1067 8.35749 10.9622 8.62877 10.8312 8.88068L10.8312 8.88071C10.7497 9.03774 10.8109 9.23102 10.9678 9.31266ZM11.1154 9.24885C11.0811 9.24885 11.0464 9.24081 11.0139 9.22395L11.7151 8.43497C11.5682 8.64144 11.435 8.89155 11.3111 9.12997C11.2718 9.20555 11.195 9.24885 11.1154 9.24885Z" fill="#D10400" stroke="#D10400" stroke-width="0.2"/>
<path d="M11.8747 7.87359L11.8747 7.87359C11.9262 7.99645 12.0452 8.07013 12.1702 8.07013C12.2116 8.07013 12.2536 8.06208 12.294 8.04517L12.2941 8.04515C12.388 8.00571 12.4874 7.98617 12.5997 7.98617C12.7765 7.98617 12.92 7.84268 12.92 7.66582C12.92 7.48896 12.7765 7.34547 12.5997 7.34547C12.4054 7.34547 12.2189 7.38179 12.0462 7.45429L12.0462 7.4543C11.883 7.52282 11.8063 7.71039 11.8747 7.87359Z" fill="#D10400" stroke="#D10400" stroke-width="0.2"/>
<path d="M3.96104 11.8174C3.96104 11.9943 4.10453 12.1378 4.28139 12.1378C4.45819 12.1378 4.60174 11.9945 4.60174 11.8175V4.30542C4.60174 4.12856 4.45825 3.98507 4.28139 3.98507C4.10453 3.98507 3.96104 4.12856 3.96104 4.30542V11.8174Z" fill="#D10400" stroke="#D10400" stroke-width="0.2"/>
<path d="M6.82554 13.0094C6.82554 13.1863 6.96888 13.3298 7.14589 13.3298C7.32276 13.3298 7.46625 13.1863 7.46625 13.0094V6.94968C7.46625 6.77281 7.32276 6.62932 7.14589 6.62932C6.96888 6.62932 6.82554 6.77285 6.82554 6.94968V13.0094Z" fill="#D10400" stroke="#D10400" stroke-width="0.2"/>
<path d="M9.69028 11.8174C9.69028 11.9942 9.83363 12.1378 10.0106 12.1378C10.1874 12.1378 10.331 11.9945 10.331 11.8175V4.30542C10.331 4.12856 10.1875 3.98507 10.0106 3.98507C9.83363 3.98507 9.69028 4.12859 9.69028 4.30542V11.8174Z" fill="#D10400" stroke="#D10400" stroke-width="0.2"/>
<path d="M6.86704 7.36212C6.75611 7.22594 6.21715 6.5551 5.70537 5.76353C5.44948 5.36775 5.19907 4.93977 5.0123 4.53198C4.82669 4.12673 4.69883 3.73072 4.69883 3.40208C4.69883 2.0223 5.82113 0.9 7.20091 0.9C8.58058 0.9 9.70299 2.0223 9.70299 3.40208C9.70299 3.73072 9.57513 4.12673 9.38952 4.53197C9.20275 4.93974 8.95234 5.36771 8.69645 5.76349C8.18465 6.55508 7.64567 7.22593 7.53478 7.36212H6.86704ZM6.86704 7.36212C6.94876 7.46266 7.07149 7.52091 7.20091 7.52091M6.86704 7.36212L7.20091 7.52091M7.20091 7.52091C7.33031 7.52091 7.45301 7.46268 7.53473 7.36219L7.20091 7.52091ZM5.55989 3.40219C5.55989 2.49745 6.29617 1.76117 7.20091 1.76117C8.10565 1.76117 8.84182 2.49744 8.84182 3.40219C8.84182 3.54907 8.78683 3.75322 8.68428 4.00004C8.58277 4.24438 8.43875 4.52105 8.26991 4.80972C7.95568 5.34696 7.55907 5.91963 7.20079 6.39264C6.84257 5.91979 6.446 5.34725 6.13179 4.81005C5.96295 4.5214 5.81894 4.24472 5.71743 4.00033C5.61489 3.75346 5.55989 3.54922 5.55989 3.40219Z" fill="#D10400" stroke="#D10400" stroke-width="0.2"/>
<path d="M6.12266 3.40218C6.12266 3.99674 6.60627 4.48034 7.20092 4.48034C7.79557 4.48034 8.27918 3.99674 8.27918 3.40218C8.27918 2.80753 7.79558 2.32392 7.20092 2.32392C6.60626 2.32392 6.12266 2.80753 6.12266 3.40218ZM6.76336 3.40218C6.76336 3.16094 6.95976 2.96463 7.20092 2.96463C7.44208 2.96463 7.63847 3.16094 7.63847 3.40218C7.63847 3.64321 7.44208 3.83963 7.20092 3.83963C6.95965 3.83963 6.76336 3.64332 6.76336 3.40218Z" fill="#D10400" stroke="#D10400" stroke-width="0.2"/>
</svg>
