<svg width="18" height="15" viewBox="0 0 18 15" fill="none" xmlns="http://www.w3.org/2000/svg">
<path d="M0.779095 2.83663L4.86852 0.0908111C5.04819 -0.0302704 5.27473 -0.0302704 5.45831 0.0908111L9.25089 2.63743L13.0435 0.0908111C13.2231 -0.0302704 13.4536 -0.0302704 13.6333 0.0908111L17.7227 2.83663C17.8945 2.9499 18 3.16081 18 3.38345V14.3589C18 14.5893 17.8906 14.8003 17.711 14.9174C17.5313 15.0307 17.3087 15.0268 17.1329 14.9096L13.3403 12.363L9.54773 14.9096C9.36416 15.0307 9.14153 15.0307 8.95795 14.9096L5.16146 12.363L1.36888 14.9096C1.27905 14.9682 1.17749 15.0034 1.07594 15.0034C0.978294 15.0034 0.880648 14.976 0.794718 14.9213C0.615049 14.8081 0.505686 14.5932 0.505686 14.3628V3.38735C0.50178 3.16081 0.607237 2.9499 0.779095 2.83663ZM13.977 11.2967L16.7501 13.2262V3.78575L13.977 1.85626V11.2967ZM12.7271 11.2811V6.50032C12.688 6.52766 12.649 6.55109 12.6138 6.57843L12.2506 6.07067C12.399 5.96521 12.5631 5.86366 12.7271 5.77773V1.83673L9.87583 3.7506V7.99626C10.0906 7.92205 10.3016 7.8244 10.5164 7.68769L10.8484 8.21889C10.5828 8.38684 10.3172 8.51183 10.0399 8.60166L9.87583 8.10172V13.191L12.7271 11.2811ZM8.62595 13.191V8.7618C8.61814 8.7618 8.61033 8.7618 8.60642 8.7618C8.49315 8.75399 8.37988 8.74227 8.27443 8.72665L8.37207 8.10953C8.4541 8.12124 8.54002 8.13296 8.62986 8.13687V3.7506L5.77859 1.83673V6.4925L5.9856 6.30502C6.10277 6.43392 6.21214 6.56281 6.3215 6.68389C6.39181 6.76591 6.46211 6.84403 6.52851 6.92215L6.05981 7.33617C5.9895 7.25805 5.9192 7.17603 5.84889 7.09401C5.82546 7.06666 5.80202 7.03932 5.77468 7.01198V11.2772L8.62595 13.191ZM1.75165 13.191L4.52481 11.3006V5.94178C4.3842 5.87928 4.23577 5.83241 4.09126 5.80117L4.21625 5.18795C4.3217 5.20748 4.42326 5.23872 4.52871 5.26997V1.85235L1.75556 3.74669V13.191H1.75165Z" fill="#77838F"/>
</svg>
