<svg width="11" height="17" viewBox="0 0 11 17" fill="none" xmlns="http://www.w3.org/2000/svg">
<path d="M9.89512 0.504722C9.55888 0.168116 9.16027 0 8.69988 0H1.90005C1.43952 0 1.04114 0.168256 0.704673 0.504722C0.368207 0.841001 0.199951 1.23952 0.199951 1.69991V15.3C0.199951 15.7603 0.368207 16.1588 0.704673 16.4952C1.04114 16.8317 1.43952 17 1.90005 17H8.69988C9.16022 17 9.55889 16.8316 9.89507 16.4952C10.2316 16.1588 10.3999 15.7603 10.3999 15.3V1.69991C10.3999 1.23952 10.2318 0.841187 9.89512 0.504722ZM4.23749 1.69991H6.36267C6.50437 1.69991 6.57503 1.77076 6.57503 1.91245C6.57503 2.0541 6.50432 2.12504 6.36267 2.12504H4.23749C4.09584 2.12504 4.025 2.0541 4.025 1.91245C4.02495 1.77076 4.0958 1.69991 4.23749 1.69991ZM6.05058 16.0504C5.84237 16.2583 5.59229 16.3624 5.30001 16.3624C5.00788 16.3624 4.7578 16.2583 4.54967 16.0504C4.34155 15.8422 4.23749 15.5919 4.23749 15.3C4.23749 15.0077 4.34169 14.7576 4.54967 14.5495C4.75766 14.3416 5.00792 14.2372 5.30001 14.2372C5.59233 14.2372 5.84241 14.3416 6.05058 14.5495C6.25866 14.7576 6.36263 15.0077 6.36263 15.3C6.36263 15.5923 6.25852 15.8422 6.05058 16.0504ZM9.1251 13.1751C9.1251 13.29 9.0831 13.39 8.99885 13.4739C8.91452 13.558 8.81515 13.5998 8.70021 13.5998H1.90005C1.78496 13.5998 1.68537 13.5578 1.60126 13.4739C1.51716 13.39 1.47511 13.29 1.47511 13.1751V3.82514C1.47511 3.71005 1.51711 3.61036 1.60126 3.52635C1.68541 3.44239 1.78496 3.4001 1.90005 3.4001H8.69988C8.81515 3.4001 8.91461 3.4422 8.99885 3.52635C9.0831 3.61041 9.12492 3.71005 9.12492 3.82514V13.175H9.1251V13.1751Z" fill="#D10400"/>
</svg>
